<?xml version="1.0" encoding="UTF-8"?>
<svg version="1.1" xmlns="http://www.w3.org/2000/svg" width="268" height="413">
<path d="M0 0 C88.44 0 176.88 0 268 0 C268 136.29 268 272.58 268 413 C179.56 413 91.12 413 0 413 C0 276.71 0 140.42 0 0 Z " fill="#FEFEFE" transform="translate(0,0)"/>
<path d="M0 0 C1.29543103 3.04007685 2.58565977 6.08233552 3.875 9.125 C4.42220703 10.40890625 4.42220703 10.40890625 4.98046875 11.71875 C8.25285249 19.45347519 10.35079749 25.6840502 10.25 34.125 C10.24033203 34.97392822 10.23066406 35.82285645 10.22070312 36.69750977 C9.91771433 52.60896616 5.27811714 67.4625488 -3 81.125 C-5.27824442 85.54885133 -5.59353286 89.79069601 -5.75 94.6875 C-5.78996094 95.38182129 -5.82992187 96.07614258 -5.87109375 96.79150391 C-5.83528936 103.38398793 -3.07230817 108.62063442 -0.21484375 114.42114258 C4.00566718 123.01790419 7.66231904 131.88693038 11.4453125 140.68212891 C12.88556923 144.02452797 14.33732815 147.3617918 15.7890625 150.69921875 C16.71165105 152.84083859 17.63355119 154.98275514 18.5546875 157.125 C18.9869162 158.11363037 19.4191449 159.10226074 19.86447144 160.12084961 C22.02316086 165.17923438 23.37707122 169.55098344 24 175 C25.74831666 176.23983449 25.74831666 176.23983449 28 177 C29.80488153 178.52047595 31.55172297 180.11131163 33.25 181.75 C34.14203125 182.59046875 35.0340625 183.4309375 35.953125 184.296875 C38 187 38 187 38.46484375 190.07421875 C36.93775838 199.68587374 24.8617972 208.55087032 18 215 C15.15916359 216.42041821 13.14522722 216.31452272 10 216 C7.5625 214.4375 7.5625 214.4375 6 212 C6.0625 208.4375 6.0625 208.4375 7 205 C7.50829346 204.54842529 8.01658691 204.09685059 8.5402832 203.6315918 C10.64591784 201.27802828 10.34239144 199.57066056 10.29296875 196.45703125 C10.28330078 195.38388672 10.27363281 194.31074219 10.26367188 193.20507812 C10.23853516 192.08552734 10.21339844 190.96597656 10.1875 189.8125 C10.17396484 188.68134766 10.16042969 187.55019531 10.14648438 186.38476562 C10.11110305 183.58964118 10.05729579 180.79476111 10 178 C3.565 180.475 3.565 180.475 -3 183 C-9.16977534 171.65066017 -14.86987342 160.12535992 -20.40234375 148.453125 C-23.50268797 141.91818603 -26.72516598 135.44907586 -30 129 C-33.83300529 133.53835251 -36.98078343 138.45125513 -40.1875 143.4375 C-40.75686279 144.31825195 -41.32622559 145.19900391 -41.9128418 146.10644531 C-43.61147976 148.73576198 -45.30628028 151.36751315 -47 154 C-47.95051145 155.47526646 -48.90103153 156.95052737 -49.8515625 158.42578125 C-51.90473174 161.61483004 -53.95381269 164.80646735 -56 168 C-58.97 167.67 -61.94 167.34 -65 167 C-65.38063221 169.3260857 -65.71269945 171.66055264 -66 174 C-65.67 174.33 -65.34 174.66 -65 175 C-64.79214267 177.76747182 -64.67537988 180.47910658 -64.625 183.25 C-64.58761719 184.01441406 -64.55023438 184.77882813 -64.51171875 185.56640625 C-64.44383472 189.93361245 -64.57355053 191.48284541 -67.4609375 194.984375 C-68.71777344 195.98210937 -68.71777344 195.98210937 -70 197 C-70.33 197.33 -70.66 197.66 -71 198 C-75.21951063 198.29024061 -79.44489468 198.31400504 -83.6730957 198.35009766 C-85.09416095 198.36663864 -86.51514363 198.39390521 -87.93579102 198.43212891 C-89.98497641 198.48699011 -92.03220974 198.50878303 -94.08203125 198.5234375 C-95.31155518 198.54325684 -96.5410791 198.56307617 -97.80786133 198.58349609 C-101 198 -101 198 -103.4362793 195.69775391 C-105 193 -105 193 -104.9375 189.3125 C-104 186 -104 186 -101 184 C-99.90042969 183.9071875 -98.80085938 183.814375 -97.66796875 183.71875 C-93.16524634 182.8364274 -91.17440141 180.86187523 -88.3125 177.5 C-87.83772217 176.96407227 -87.36294434 176.42814453 -86.8737793 175.87597656 C-83.1961501 171.57912535 -80.87676774 167.36219354 -79 162 C-80.65 161.67 -82.3 161.34 -84 161 C-82.31985289 152.1592259 -79.38072197 143.75378046 -76.5 135.25 C-76.23300293 134.46053986 -75.96600586 133.67107971 -75.69091797 132.85769653 C-73.41242892 126.12120933 -73.41242892 126.12120933 -72.38720703 123.10169983 C-70.88958221 118.67984785 -69.4289226 114.24941208 -68.02088928 109.79823303 C-63.12220445 94.31437088 -57.43257266 81.22353194 -48 68 C-46.6537863 66.07940179 -45.31902947 64.15357335 -44.00805664 62.20874023 C-42.9092639 60.58085759 -41.77834738 58.97477962 -40.64453125 57.37109375 C-38.45220533 52.87708598 -38.2125275 48.94699958 -38 44 C-37.95206299 43.00508545 -37.90412598 42.0101709 -37.85473633 40.98510742 C-37.66933305 36.69154022 -37.53292392 32.39686104 -37.39453125 28.1015625 C-37.19073419 22.33902489 -36.82916459 16.70741627 -36 11 C-28.97931792 8.25239973 -21.83171362 6.01920688 -14.625 3.8125 C-12.84416016 3.26045898 -12.84416016 3.26045898 -11.02734375 2.69726562 C-9.89683594 2.34986328 -8.76632813 2.00246094 -7.6015625 1.64453125 C-6.05976318 1.17043823 -6.05976318 1.17043823 -4.48681641 0.68676758 C-2 0 -2 0 0 0 Z " fill="#3E3E3E" transform="translate(136,186)"/>
<path d="M0 0 C0.81210938 -0.02449219 1.62421875 -0.04898438 2.4609375 -0.07421875 C8.3129764 -0.10235355 12.74396306 1.07071727 17.625 4.375 C19.53434089 6.67937694 20.48457029 8.44709736 20.93359375 11.4140625 C21.59374801 14.81414904 22.23552342 17.3722986 25.16162109 19.48388672 C27.74401245 20.98397734 30.37294524 22.31118121 33.09082031 23.5480957 C37.34582463 25.50508094 40.13702187 27.20923149 42.625 31.375 C43.12834233 35.57897183 42.25303222 39.34502715 40.0625 42.9375 C39.588125 43.411875 39.11375 43.88625 38.625 44.375 C37.944375 44.065625 37.26375 43.75625 36.5625 43.4375 C33.19409364 42.21914025 30.19832328 41.63487806 26.625 41.375 C26.02816406 41.70371094 25.43132812 42.03242187 24.81640625 42.37109375 C21.7970538 43.75429086 19.42436788 43.38442173 16.125 43.1875 C8.66521375 43.03892983 3.19849613 45.00397635 -3.375 48.375 C-4.51264351 44.10883684 -5.375 40.81013689 -5.375 36.375 C-6.261875 36.16875 -7.14875 35.9625 -8.0625 35.75 C-12.14661519 34.0547069 -13.64906823 31.79988863 -16.375 28.375 C-18.03448148 27.36312105 -19.70080562 26.3623454 -21.375 25.375 C-24.30467369 22.52450668 -25.28234468 21.0120053 -25.875 16.9375 C-25.08720725 11.32447668 -22.52313328 8.47321444 -18.5 4.625 C-12.58932298 0.36931255 -7.04604882 0.01107869 0 0 Z " fill="#3E3E3E" transform="translate(92.375,79.625)"/>
<path d="M0 0 C3.0679568 1.18655696 5.73436887 2.81952052 8.54858398 4.5222168 C9.78834896 5.25803429 11.02859845 5.99303595 12.26928711 6.72729492 C14.21418639 7.88468595 16.15521836 9.04721392 18.08837891 10.22412109 C19.96152716 11.36104147 21.84712123 12.47432715 23.73608398 13.5847168 C24.85748779 14.25913818 25.9788916 14.93355957 27.13427734 15.62841797 C30.10643791 17.15919047 30.10643791 17.15919047 32.92578125 16.18359375 C34.72456242 15.13618027 36.47681826 14.0088627 38.20874023 12.85424805 C45.33377335 11.92828615 51.72176041 11.9720394 57.62280273 16.35424805 C61.74521287 20.25327635 63.95913116 24.35815729 64.52124023 29.97924805 C64.02352021 36.1509763 62.0185508 41.63325119 57.27124023 45.79174805 C52.02881091 49.32236371 47.58692461 50.79567747 41.20874023 49.85424805 C34.35940904 47.63011098 30.29714176 43.73270801 26.89624023 37.41674805 C25.72091321 33.03598367 25.77824128 29.14574492 27.20874023 24.85424805 C23.7610338 23.20982913 23.7610338 23.20982913 20.02124023 23.10424805 C18.00432474 23.80332019 18.00432474 23.80332019 16.20874023 25.85424805 C13.58374023 25.47924805 13.58374023 25.47924805 11.20874023 24.85424805 C10.40920886 21.56728572 10.11215088 20.14401612 11.20874023 16.85424805 C9.55874023 15.86424805 7.90874023 14.87424805 6.20874023 13.85424805 C5.94061523 14.78237305 5.67249023 15.71049805 5.39624023 16.66674805 C3.66794327 21.30586095 3.66794327 21.30586095 1.20874023 22.85424805 C-1.47875977 22.54174805 -1.47875977 22.54174805 -3.79125977 21.85424805 C-4.79947136 19.16568381 -5.018628 17.4372159 -3.96704102 14.7409668 C-2.95730674 12.74629874 -1.9101933 10.78957085 -0.79125977 8.85424805 C-1.78125977 8.52424805 -2.77125977 8.19424805 -3.79125977 7.85424805 C-4.12125977 5.87424805 -4.45125977 3.89424805 -4.79125977 1.85424805 C-1.79125977 -0.14575195 -1.79125977 -0.14575195 0 0 Z " fill="#434343" transform="translate(194.791259765625,17.145751953125)"/>
<path d="M0 0 C5.28 1.32 10.56 2.64 16 4 C15.34 4.33 14.68 4.66 14 5 C13.25248627 8.48254713 13.25248627 8.48254713 13 12 C13.495 12.495 13.495 12.495 14 13 C14.20785733 15.76747182 14.32462012 18.47910658 14.375 21.25 C14.43107422 22.39662109 14.43107422 22.39662109 14.48828125 23.56640625 C14.55616528 27.93361245 14.42644947 29.48284541 11.5390625 32.984375 C10.70117188 33.64953125 9.86328125 34.3146875 9 35 C8.67 35.33 8.34 35.66 8 36 C3.78048937 36.29024061 -0.44489468 36.31400504 -4.6730957 36.35009766 C-6.09416095 36.36663864 -7.51514363 36.39390521 -8.93579102 36.43212891 C-10.98497641 36.48699011 -13.03220974 36.50878303 -15.08203125 36.5234375 C-16.31155518 36.54325684 -17.5410791 36.56307617 -18.80786133 36.58349609 C-22 36 -22 36 -24.4362793 33.69775391 C-26 31 -26 31 -25.9375 27.3125 C-25 24 -25 24 -22 22 C-20.90042969 21.9071875 -19.80085938 21.814375 -18.66796875 21.71875 C-14.16524634 20.8364274 -12.17440141 18.86187523 -9.3125 15.5 C-8.83772217 14.96407227 -8.36294434 14.42814453 -7.8737793 13.87597656 C-4.1961501 9.57912535 -1.87676774 5.36219354 0 0 Z " fill="#3F3F3F" transform="translate(57,348)"/>
<path d="M0 0 C0.12375 0.928125 0.12375 0.928125 0.25 1.875 C0.76826785 4.13611333 0.76826785 4.13611333 2.71875 4.8359375 C5.73017325 6.3725884 7.82005494 8.40531617 10.25 10.75 C11.14203125 11.59046875 12.0340625 12.4309375 12.953125 13.296875 C15 16 15 16 15.46484375 19.07421875 C13.93775838 28.68587374 1.8617972 37.55087032 -5 44 C-7.84083641 45.42041821 -9.85477278 45.31452272 -13 45 C-15.4375 43.4375 -15.4375 43.4375 -17 41 C-16.9375 37.4375 -16.9375 37.4375 -16 34 C-15.23755981 33.32263794 -15.23755981 33.32263794 -14.4597168 32.6315918 C-12.35408216 30.27802828 -12.65760856 28.57066056 -12.70703125 25.45703125 C-12.71669922 24.38388672 -12.72636719 23.31074219 -12.73632812 22.20507812 C-12.76146484 21.08552734 -12.78660156 19.96597656 -12.8125 18.8125 C-12.82603516 17.68134766 -12.83957031 16.55019531 -12.85351562 15.38476562 C-12.88890042 12.58936683 -12.93827052 9.79492108 -13 7 C-13.66 6.67 -14.32 6.34 -15 6 C-12.87717331 4.99539469 -10.75166979 3.99644398 -8.625 3 C-7.44164062 2.443125 -6.25828125 1.88625 -5.0390625 1.3125 C-2 0 -2 0 0 0 Z " fill="#3F3F3F" transform="translate(159,357)"/>
<path d="M0 0 C0.79019531 0.515625 1.58039063 1.03125 2.39453125 1.5625 C2.98621094 2.036875 3.57789062 2.51125 4.1875 3 C4.1875 3.66 4.1875 4.32 4.1875 5 C3.42308594 5.21615967 2.65867187 5.43231934 1.87109375 5.6550293 C-5.54570867 7.75522944 -12.95699568 9.87352007 -20.36376953 12.00878906 C-22.4076555 12.59622903 -24.45253057 13.18027392 -26.49951172 13.75683594 C-34.96761198 16.14206289 -42.33713727 19.01584084 -49.84765625 23.64453125 C-53.43104942 25.28278873 -55.91207866 25.38590741 -59.8125 25 C-62.8125 22.9375 -62.8125 22.9375 -64.8125 20 C-64.9375 16.4375 -64.9375 16.4375 -63.8125 13 C-60.11345204 9.35485437 -57.04022413 8.33554533 -52 7.375 C-45.78703309 6.10397001 -39.77992249 4.40945453 -33.75390625 2.453125 C-33.04304367 2.22352081 -32.33218109 1.99391663 -31.59977722 1.75735474 C-28.69470382 0.81590653 -25.79140844 -0.12909501 -22.89779663 -1.10528564 C-20.83719621 -1.80018224 -18.77096931 -2.4754619 -16.703125 -3.1484375 C-15.49688477 -3.55239746 -14.29064453 -3.95635742 -13.04785156 -4.37255859 C-7.6870331 -5.41219815 -4.36548704 -2.89584547 0 0 Z " fill="#767676" transform="translate(94.8125,189)"/>
<path d="M0 0 C0.4940332 1.1645874 0.98806641 2.3291748 1.49707031 3.52905273 C3.34509567 7.88484862 5.19413038 12.24021544 7.04345703 16.59545898 C7.84092939 18.47392433 8.63813467 20.35250309 9.43505859 22.23120117 C10.58619665 24.94480385 11.73832176 27.65798568 12.890625 30.37109375 C13.24183411 31.19959335 13.59304321 32.02809296 13.95489502 32.88169861 C14.29494568 33.68184891 14.63499634 34.48199921 14.98535156 35.30639648 C15.31450562 36.08167694 15.64365967 36.8569574 15.98278809 37.6557312 C17.35246589 40.81229367 18.80068073 43.9318102 20.2633667 47.04627991 C21.41280395 50.09485055 21.18543039 52.00155843 20 55 C17.875 57.4375 17.875 57.4375 15 59 C10.85362948 59.07274334 8.84133879 58.7970332 5.80249023 55.91821289 C3.5506662 52.27253327 3.63715485 49.37954947 3.72265625 45.24609375 C3.52389306 35.27801503 -0.06604537 27.78971429 -4.5625 19.0625 C-5.63187232 16.91773276 -6.69297613 14.76905058 -7.75218201 12.61924744 C-8.40651107 11.29873845 -9.06836683 9.98192511 -9.73866272 8.66944885 C-12 4.21166427 -12 4.21166427 -12 2 C-7.84055256 0.69507531 -4.34963091 -0.12019705 0 0 Z " fill="#777777" transform="translate(162,174)"/>
<path d="M0 0 C2.90030416 0.3135464 4.54066224 0.53846445 6.6328125 2.640625 C8.39754262 5.68604498 8.43798843 7.99761006 8.5625 11.5 C8.76629018 16.88500125 9.13274106 20.13274106 13 24 C6.07 26.97 6.07 26.97 -1 30 C-2.13764351 25.73383684 -3 22.43513689 -3 18 C-4.3303125 17.690625 -4.3303125 17.690625 -5.6875 17.375 C-9.96539579 15.59926967 -11.34400193 13.74964433 -14 10 C-14 9.34 -14 8.68 -14 8 C-12.783125 7.7525 -11.56625 7.505 -10.3125 7.25 C-6.40942794 6.28115233 -3.92462408 4.8359991 -1 2 C-0.67 1.34 -0.34 0.68 0 0 Z " fill="#737373" transform="translate(90,98)"/>
<path d="M0 0 C2.8100346 1.79363911 4.50940468 3.01880935 6 6 C6.57884232 13.06187625 6.57884232 13.06187625 4.1875 16.9375 C1.34478523 19.61777392 -0.50725706 19.95437565 -4.375 20.3125 C-8.60663216 19.94770412 -10.07633558 19.00965455 -13 16 C-14.20190901 12.39427296 -14.32670315 9.7897565 -14 6 C-10.26747896 0.27680107 -6.74763808 -0.96948823 0 0 Z " fill="#FAFAFA" transform="translate(244,38)"/>
<path d="M0 0 C5.28 1.32 10.56 2.64 16 4 C15.01 4.495 15.01 4.495 14 5 C13.62633887 6.99285937 13.29259485 8.99363529 13 11 C11.35254404 12.64745596 9.44664549 12.1709616 7.1875 12.1875 C6.31480469 12.20167969 5.44210938 12.21585937 4.54296875 12.23046875 C2 12 2 12 -2 10 C-4.64 12.64 -7.28 15.28 -10 18 C-10 13.70510287 -7.71281836 12.30756107 -4.82421875 9.328125 C-2.41131718 6.45397474 -2.41131718 6.45397474 0 0 Z " fill="#707070" transform="translate(57,348)"/>
<path d="M0 0 C0.65625 1.76953125 0.65625 1.76953125 1 4 C-0.46394816 6.85115711 -2.51626954 8.9918775 -5 11 C-8.875 11.9375 -8.875 11.9375 -12 12 C-12.12375 11.195625 -12.2475 10.39125 -12.375 9.5625 C-12.684375 8.2940625 -12.684375 8.2940625 -13 7 C-13.66 6.67 -14.32 6.34 -15 6 C-12.87717331 4.99539469 -10.75166979 3.99644398 -8.625 3 C-7.44164062 2.443125 -6.25828125 1.88625 -5.0390625 1.3125 C-2 0 -2 0 0 0 Z " fill="#717171" transform="translate(159,357)"/>
</svg>
